# xmcd
#
# Track frame offsets:
#	150
#	15822
#	40552
#	62195
#	81665
#	106742
#	123605
#	143397
#	166200
#	189205
#	222277
#
# Disc length: 3571 seconds
# Revision: 0
# Processed by: cddbd v1.5.2PL0 Copyright (c) Steve Scherf et al.
# Submitted via: dBpowerAMP V12.0
#
DISCID=850df10b
DTITLE=James Yorkston - Moving Up Country [10th Anniversary Edition]
DYEAR=2002
DGENRE=Alt. Country
TTITLE0=In Your Hands
TTITLE1=St. Patrick
TTITLE2=Sweet Jesus
TTITLE3=Tender to the Blues
TTITLE4=Moving Up Country, Roaring the Gospel
TTITLE5=Cheating the Game
TTITLE6=I Spy Dogs
TTITLE7=6: 30 Is Just Way Too Early
TTITLE8=The Patience Song
TTITLE9=I Know My Love
TTITLE10=The Lang Toun
EXTD=
EXTT0=
EXTT1=
EXTT2=
EXTT3=
EXTT4=
EXTT5=
EXTT6=
EXTT7=
EXTT8=
EXTT9=
EXTT10=
PLAYORDER=
